<svg height="512pt" viewBox="0 0 512 511" width="512pt" xmlns="http://www.w3.org/2000/svg"><path d="m226.625 385.9375h58.75v118.011719h-58.75zm0 0" fill="#87523e"/><path d="m256 385.9375h29.375v118.011719h-29.375zm0 0" fill="#6d4336"/><path d="m24.34375 49.421875h463.3125v296.53125h-463.3125zm0 0" fill="#efe2dd"/><path d="m459.058594 49.421875h28.597656v296.53125h-28.597656zm0 0" fill="#e1d3ce"/><path d="m499.511719 48.695312h-487.023438c-2.757812 0-4.996093-2.234374-4.996093-4.992187v-30.714844c0-2.757812 2.238281-4.996093 4.996093-4.996093h487.023438c2.757812 0 4.996093 2.238281 4.996093 4.996093v30.714844c0 2.757813-2.238281 4.992187-4.996093 4.992187zm0 0" fill="#bd7c63"/><path d="m499.511719 385.9375h-487.023438c-2.757812 0-4.996093-2.234375-4.996093-4.992188v-30.714843c0-2.757813 2.238281-4.996094 4.996093-4.996094h487.023438c2.757812 0 4.996093 2.238281 4.996093 4.996094v30.714843c0 2.757813-2.238281 4.992188-4.996093 4.992188zm0 0" fill="#bd7c63"/><path d="m499.511719 48.695312h-32.28125v-40.703124h32.28125c2.757812 0 4.996093 2.238281 4.996093 4.996093v30.714844c0 2.757813-2.238281 4.992187-4.996093 4.992187zm0 0" fill="#ac6a51"/><path d="m499.511719 385.9375h-32.28125v-40.703125h32.28125c2.757812 0 4.996093 2.238281 4.996093 4.996094v30.714843c0 2.757813-2.238281 4.992188-4.996093 4.992188zm0 0" fill="#ac6a51"/><path d="m212.511719 303.28125h35.308593c2.757813 0 4.992188-2.238281 4.992188-4.996094v-183.8125c0-2.757812-2.234375-4.992187-4.992188-4.992187h-35.308593c-2.757813 0-4.992188 2.234375-4.992188 4.992187v183.8125c0 2.757813 2.234375 4.996094 4.992188 4.996094zm0 0" fill="#ff4343"/><path d="m141.277344 303.28125h35.304687c2.757813 0 4.996094-2.238281 4.996094-4.996094v-142.421875c0-2.757812-2.238281-4.996093-4.996094-4.996093h-35.304687c-2.757813 0-4.996094 2.238281-4.996094 4.996093v142.421875c0 2.757813 2.238281 4.996094 4.996094 4.996094zm0 0" fill="#83afe4"/><path d="m158.929688 303.28125h17.652343c2.757813 0 4.996094-2.238281 4.996094-4.996094v-142.421875c0-2.757812-2.238281-4.996093-4.996094-4.996093h-17.652343zm0 0" fill="#5290d9"/><path d="m70.042969 303.28125h35.304687c2.757813 0 4.996094-2.238281 4.996094-4.996094v-103.292968c0-2.757813-2.238281-4.996094-4.996094-4.996094h-35.304687c-2.757813 0-4.996094 2.238281-4.996094 4.996094v103.292968c0 2.757813 2.238281 4.996094 4.996094 4.996094zm0 0" fill="#ffcd6b"/><path d="m87.695312 303.28125h17.652344c2.757813 0 4.996094-2.238281 4.996094-4.996094v-103.292968c0-2.757813-2.238281-4.996094-4.996094-4.996094h-17.652344zm0 0" fill="#ffc143"/><path d="m230.167969 303.28125h17.652343c2.757813 0 4.996094-2.238281 4.996094-4.996094v-183.8125c0-2.757812-2.238281-4.992187-4.996094-4.992187h-17.652343zm0 0" fill="#f72c2c"/><path d="m247.820312 101.988281h-35.308593c-6.882813 0-12.484375 5.597657-12.484375 12.484375v183.8125c0 6.886719 5.601562 12.488282 12.484375 12.488282h35.308593c6.886719 0 12.488282-5.601563 12.488282-12.488282v-183.8125c0-6.882812-5.601563-12.484375-12.488282-12.484375zm-2.496093 193.796875h-30.3125v-178.8125h30.3125zm0 0"/><path d="m176.585938 143.375h-35.308594c-6.886719 0-12.488282 5.601562-12.488282 12.488281v142.421875c0 6.886719 5.601563 12.488282 12.488282 12.488282h35.308594c6.882812 0 12.484374-5.601563 12.484374-12.488282v-142.421875c0-6.886719-5.601562-12.488281-12.484374-12.488281zm-2.5 152.410156h-30.3125v-137.425781h30.3125zm0 0"/><path d="m105.347656 182.503906h-35.304687c-6.886719 0-12.488281 5.601563-12.488281 12.488282v103.292968c0 6.886719 5.601562 12.488282 12.488281 12.488282h35.304687c6.886719 0 12.488282-5.601563 12.488282-12.488282v-42.3125c0-4.140625-3.355469-7.492187-7.492188-7.492187-4.140625 0-7.492188 3.351562-7.492188 7.492187v39.8125h-30.3125v-98.292968h30.3125v23.515624c0 4.136719 3.351563 7.492188 7.492188 7.492188 4.136719 0 7.492188-3.355469 7.492188-7.492188v-26.015624c0-6.882813-5.601563-12.488282-12.488282-12.488282zm0 0"/><path d="m290.324219 159.972656h30.71875c4.140625 0 7.492187-3.355468 7.492187-7.492187 0-4.140625-3.351562-7.496094-7.492187-7.496094h-30.71875c-4.136719 0-7.492188 3.355469-7.492188 7.496094 0 4.136719 3.355469 7.492187 7.492188 7.492187zm0 0"/><path d="m346.71875 159.972656h29.023438c4.136718 0 7.492187-3.355468 7.492187-7.492187 0-4.140625-3.355469-7.496094-7.492187-7.496094h-29.023438c-4.140625 0-7.492188 3.355469-7.492188 7.496094 0 4.136719 3.355469 7.492187 7.492188 7.492187zm0 0"/><path d="m446.953125 144.984375h-43.105469c-4.136718 0-7.492187 3.355469-7.492187 7.496094 0 4.136719 3.355469 7.492187 7.492187 7.492187h43.105469c4.136719 0 7.492187-3.355468 7.492187-7.492187 0-4.140625-3.355468-7.496094-7.492187-7.496094zm0 0"/><path d="m290.324219 197.597656h40.207031c4.136719 0 7.492188-3.355468 7.492188-7.492187s-3.355469-7.492188-7.492188-7.492188h-40.207031c-4.136719 0-7.492188 3.355469-7.492188 7.492188s3.355469 7.492187 7.492188 7.492187zm0 0"/><path d="m346.523438 190.105469c0 4.136719 3.355468 7.492187 7.496093 7.492187h56.632813c4.140625 0 7.492187-3.355468 7.492187-7.492187s-3.351562-7.492188-7.492187-7.492188h-56.632813c-4.140625 0-7.496093 3.355469-7.496093 7.492188zm0 0"/><path d="m446.953125 182.613281h-13.902344c-4.140625 0-7.492187 3.355469-7.492187 7.492188s3.351562 7.492187 7.492187 7.492187h13.902344c4.136719 0 7.492187-3.355468 7.492187-7.492187s-3.355468-7.492188-7.492187-7.492188zm0 0"/><path d="m290.324219 235.226562h15.359375c4.140625 0 7.492187-3.355468 7.492187-7.492187s-3.351562-7.492187-7.492187-7.492187h-15.359375c-4.136719 0-7.492188 3.355468-7.492188 7.492187s3.355469 7.492187 7.492188 7.492187zm0 0"/><path d="m375.765625 227.734375c0-4.136719-3.351563-7.492187-7.492187-7.492187h-39.257813c-4.140625 0-7.492187 3.355468-7.492187 7.492187s3.351562 7.492187 7.492187 7.492187h39.257813c4.140624 0 7.492187-3.355468 7.492187-7.492187zm0 0"/><path d="m446.953125 220.242188h-50.285156c-4.140625 0-7.492188 3.355468-7.492188 7.492187s3.351563 7.492187 7.492188 7.492187h50.285156c4.136719 0 7.492187-3.355468 7.492187-7.492187s-3.355468-7.492187-7.492187-7.492187zm0 0"/><path d="m313.753906 257.871094h-23.429687c-4.136719 0-7.492188 3.355468-7.492188 7.492187s3.355469 7.492188 7.492188 7.492188h23.429687c4.136719 0 7.492188-3.355469 7.492188-7.492188s-3.355469-7.492187-7.492188-7.492187zm0 0"/><path d="m396.667969 257.871094h-57.941407c-4.140624 0-7.492187 3.355468-7.492187 7.492187s3.351563 7.492188 7.492187 7.492188h57.941407c4.136719 0 7.492187-3.355469 7.492187-7.492188s-3.355468-7.492187-7.492187-7.492187zm0 0"/><path d="m446.953125 257.871094h-21.550781c-4.140625 0-7.492188 3.355468-7.492188 7.492187s3.351563 7.492188 7.492188 7.492188h21.550781c4.136719 0 7.492187-3.355469 7.492187-7.492188s-3.355468-7.492187-7.492187-7.492187zm0 0"/><path d="m499.511719 56.1875c6.886719 0 12.488281-5.601562 12.488281-12.484375v-30.714844c0-6.886719-5.601562-12.488281-12.488281-12.488281h-77.703125c-4.136719 0-7.492188 3.355469-7.492188 7.492188 0 4.136718 3.355469 7.492187 7.492188 7.492187h75.207031v25.71875h-482.03125v-25.71875h371.882813c4.136718 0 7.492187-3.355469 7.492187-7.492187 0-4.136719-3.355469-7.492188-7.492187-7.492188h-374.378907c-6.886719 0-12.488281 5.601562-12.488281 12.488281v30.714844c0 6.882813 5.601562 12.484375 12.488281 12.484375h4.363281v281.554688h-4.363281c-6.886719 0-12.488281 5.601562-12.488281 12.488281v30.714843c0 6.886719 5.601562 12.484376 12.488281 12.484376h206.644531v102.425781h-39.226562c-4.140625 0-7.492188 3.355469-7.492188 7.492187 0 4.140625 3.351563 7.492188 7.492188 7.492188h152.1875c4.140625 0 7.492188-3.351563 7.492188-7.492188 0-4.136718-3.351563-7.492187-7.492188-7.492187h-39.226562v-102.425781h206.644531c6.886719 0 12.488281-5.597657 12.488281-12.484376v-30.714843c0-6.886719-5.601562-12.488281-12.488281-12.488281h-4.363281v-281.554688zm-467.675781.726562h448.328124v280.828126h-448.328124zm246.046874 438.941407h-43.765624v-102.425781h43.765624zm219.132813-143.128907v25.71875h-482.03125v-25.71875h6.175781c.964844.457032 2.042969.71875 3.183594.71875h463.3125c1.140625 0 2.21875-.261718 3.183594-.71875zm0 0"/></svg>